<?xml version="1.0" standalone="no"?>
<!DOCTYPE svg PUBLIC "-//W3C//DTD SVG 20010904//EN"
 "http://www.w3.org/TR/2001/REC-SVG-20010904/DTD/svg10.dtd">
<svg version="1.0" xmlns="http://www.w3.org/2000/svg"
 width="2000.000000pt" height="2000.000000pt" viewBox="0 0 2000.000000 2000.000000"
 preserveAspectRatio="xMidYMid meet">
<metadata>
Created by potrace 1.14, written by Peter Selinger 2001-2017
</metadata>
<g transform="translate(0.000000,2000.000000) scale(0.100000,-0.100000)"
fill="#000000" stroke="none">
<path d="M9600 17753 c-42 -8 -95 -79 -106 -141 -3 -15 -9 -31 -13 -37 -5 -5
-12 -26 -16 -45 -4 -19 -14 -45 -22 -57 -9 -13 -13 -23 -10 -23 3 0 -1 -16 -9
-35 -8 -19 -11 -35 -7 -35 4 0 2 -5 -5 -12 -7 -7 -12 -20 -12 -29 0 -10 -4
-19 -9 -21 -5 -1 -11 -22 -15 -46 -3 -24 -12 -53 -21 -65 -8 -12 -15 -31 -15
-42 0 -11 -7 -28 -15 -38 -7 -11 -11 -26 -8 -34 4 -9 -1 -19 -10 -25 -9 -4
-14 -15 -11 -22 3 -8 1 -17 -5 -21 -6 -3 -11 -17 -11 -31 0 -13 -4 -24 -10
-24 -5 0 -10 -13 -10 -30 0 -16 -5 -30 -11 -30 -6 0 -9 -6 -6 -14 3 -8 -1 -22
-8 -33 -8 -10 -15 -28 -15 -39 0 -18 -21 -79 -51 -149 -19 -45 -49 -141 -49
-157 0 -10 -5 -18 -11 -18 -6 0 -9 -6 -6 -12 2 -7 -6 -35 -18 -63 -12 -27 -26
-66 -30 -85 -4 -19 -11 -41 -15 -50 -11 -19 -32 -78 -32 -84 0 -3 -8 -29 -19
-58 -11 -29 -21 -58 -23 -65 -1 -7 -5 -16 -9 -19 -4 -4 -7 -16 -7 -26 0 -10
-4 -26 -9 -36 -20 -38 -34 -78 -32 -86 2 -9 -7 -33 -30 -78 -5 -10 -9 -27 -9
-37 0 -11 -4 -23 -10 -26 -5 -3 -10 -17 -10 -31 0 -13 -4 -24 -8 -24 -4 0 -9
-12 -10 -27 -1 -16 -7 -29 -12 -31 -6 -2 -10 -11 -10 -20 0 -10 -9 -42 -20
-72 -21 -57 -27 -140 -11 -140 5 0 12 -8 16 -17 7 -22 86 -63 119 -63 14 0 28
-4 31 -10 3 -5 15 -10 26 -10 10 0 27 -4 37 -9 29 -15 65 -28 112 -42 25 -7
51 -17 57 -22 7 -5 19 -7 27 -4 8 3 17 -1 20 -10 4 -10 14 -13 27 -10 12 3 22
0 26 -9 3 -8 9 -11 14 -8 6 3 16 0 24 -6 8 -7 30 -14 50 -16 19 -1 51 -11 71
-20 44 -21 135 -25 141 -6 3 6 11 12 18 12 40 0 48 100 11 143 -13 15 -29 27
-35 27 -7 0 -29 9 -51 20 -22 11 -51 20 -65 20 -14 0 -25 5 -25 10 0 6 -10 10
-23 10 -13 0 -27 4 -32 8 -6 4 -28 14 -50 21 -22 7 -49 16 -60 21 -41 17 -60
24 -70 25 -5 0 -25 6 -42 14 -18 7 -39 11 -47 8 -22 -9 -47 26 -44 62 1 17 6
31 10 31 4 0 8 9 8 20 0 11 11 44 24 75 14 30 22 55 19 55 -3 0 0 6 6 13 6 8
12 22 14 33 2 10 9 30 14 44 6 14 9 28 6 33 -2 4 1 7 6 7 6 0 11 11 11 25 0
14 4 25 9 25 5 0 11 15 14 33 13 73 20 97 27 97 4 0 13 21 20 48 7 26 16 52
19 57 3 6 7 19 8 30 2 11 8 24 13 29 6 6 10 23 10 38 0 15 5 28 10 28 6 0 10
14 10 30 0 17 5 30 11 30 6 0 9 6 6 14 -3 8 1 20 9 27 8 7 14 19 12 28 -1 9 1
22 5 28 5 7 10 21 12 30 2 10 16 50 30 88 15 39 27 75 29 80 1 6 8 20 14 33 7
12 9 22 5 22 -4 0 -2 5 5 12 7 7 12 21 12 33 0 12 4 25 10 31 5 5 11 22 12 37
1 15 5 27 9 27 4 0 9 14 13 30 3 17 9 44 12 60 4 17 10 30 15 30 5 0 9 11 9
25 0 14 5 25 10 25 6 0 10 14 10 30 0 17 4 30 8 30 4 0 14 21 21 48 8 26 18
54 22 62 4 8 13 35 20 60 7 25 17 51 22 58 5 6 6 12 3 12 -4 0 -2 9 4 21 7 11
14 33 16 47 3 15 9 31 15 37 5 5 9 15 9 23 0 8 6 28 14 45 31 68 54 187 36
187 -4 0 -10 14 -13 30 -4 17 -13 30 -21 30 -8 0 -16 4 -18 10 -4 11 -73 20
-108 13z"/>
<path d="M10223 16356 c-10 -5 -20 -12 -23 -16 -3 -4 -11 -9 -19 -12 -8 -2
-22 -28 -31 -58 -14 -46 -15 -57 -4 -68 8 -7 14 -20 14 -28 0 -20 24 -44 43
-44 9 0 17 -4 19 -10 6 -17 82 -18 116 -1 35 16 72 76 72 116 0 33 -27 79 -61
106 -33 25 -95 32 -126 15z"/>
<path d="M10100 15988 c0 -3 -8 -9 -19 -13 -27 -8 -62 -85 -78 -170 -2 -10 -7
-22 -11 -25 -9 -6 -63 -157 -66 -185 -1 -11 -8 -30 -15 -42 -6 -13 -9 -23 -6
-23 3 0 -4 -17 -15 -37 -11 -21 -20 -46 -20 -56 0 -10 -7 -31 -15 -46 -8 -16
-12 -31 -9 -34 3 -3 -2 -17 -11 -31 -9 -14 -16 -27 -16 -30 1 -9 -10 -39 -20
-58 -5 -10 -9 -26 -9 -36 0 -10 -4 -22 -9 -27 -16 -16 -19 -81 -6 -112 19 -44
48 -64 99 -67 50 -4 106 22 106 49 0 8 5 15 10 15 6 0 10 11 10 25 0 14 5 34
10 45 6 11 15 29 20 40 6 11 10 29 10 40 0 11 5 20 10 20 6 0 10 14 10 30 0
17 5 30 10 30 6 0 10 11 10 25 0 14 4 33 9 43 9 16 23 51 25 62 1 5 11 31 32
85 4 11 9 27 10 35 4 26 45 134 56 148 6 7 8 15 5 19 -3 3 0 18 9 34 8 16 12
29 8 29 -4 0 -1 6 5 13 6 8 12 22 14 33 2 10 8 28 14 39 10 19 9 30 -4 65 -4
8 -5 18 -5 22 1 4 -10 15 -26 25 -15 10 -29 20 -32 23 -7 8 -100 7 -100 -2z"/>
<path d="M10573 15802 c-33 -5 -77 -65 -92 -124 -7 -29 -21 -72 -32 -95 -10
-24 -19 -47 -19 -53 0 -6 -5 -20 -12 -33 -24 -47 -28 -57 -28 -75 0 -10 -3
-22 -7 -26 -4 -3 -8 -16 -10 -28 -2 -12 -7 -25 -11 -28 -4 -3 -9 -14 -10 -25
-2 -11 -9 -23 -15 -27 -7 -4 -9 -8 -4 -8 4 0 1 -15 -7 -34 -8 -19 -12 -37 -9
-40 3 -3 -6 -25 -19 -49 -14 -24 -24 -51 -22 -60 1 -9 -2 -17 -7 -17 -5 0 -9
-9 -9 -20 0 -12 -6 -33 -13 -48 -19 -38 -15 -97 9 -123 46 -51 127 -64 166
-27 30 28 48 60 48 86 0 11 8 30 18 43 10 13 19 38 21 54 1 17 7 32 12 33 5 2
9 16 9 31 0 15 3 31 7 35 4 3 8 12 9 19 6 33 83 217 95 229 8 7 30 25 49 38
19 13 37 27 40 30 12 12 51 30 68 30 10 0 22 3 26 8 14 14 100 10 119 -6 9 -8
17 -11 17 -7 0 4 8 1 19 -9 14 -12 18 -31 19 -76 0 -33 -4 -60 -9 -60 -5 0 -9
-9 -9 -20 0 -11 -9 -35 -20 -55 -11 -20 -20 -49 -20 -65 0 -16 -4 -32 -10 -35
-5 -3 -10 -15 -10 -26 0 -10 -4 -19 -8 -19 -5 0 -9 -6 -9 -12 -1 -15 -15 -54
-52 -150 -21 -57 -32 -99 -27 -107 3 -5 -1 -11 -9 -14 -8 -4 -12 -15 -10 -26
2 -12 -2 -24 -8 -28 -14 -9 -18 -73 -5 -73 4 0 8 -7 8 -16 0 -32 59 -67 111
-66 51 1 72 14 95 59 10 21 22 40 25 43 3 3 5 15 4 28 -1 12 1 22 4 22 4 0 17
33 30 73 13 39 32 90 43 112 11 22 22 51 24 63 3 13 12 43 20 65 9 23 21 57
27 75 7 17 15 32 19 32 5 0 8 11 8 24 0 13 4 26 9 28 32 11 33 255 0 266 -5 2
-9 9 -9 16 0 25 -86 104 -145 134 -33 16 -82 33 -110 38 -64 10 -185 11 -185
2 0 -5 -8 -8 -17 -8 -11 0 -26 16 -37 39 -24 52 -73 73 -143 63z"/>
<path d="M11552 15427 c-32 -11 -46 -30 -70 -87 -26 -65 -37 -96 -34 -102 1
-5 -2 -8 -8 -8 -5 0 -10 -11 -10 -24 0 -14 -4 -28 -10 -31 -5 -3 -10 -16 -10
-29 0 -12 -4 -26 -8 -31 -8 -9 -17 -36 -45 -135 -5 -19 -13 -43 -18 -52 -5
-10 -9 -31 -9 -46 0 -16 -5 -44 -11 -61 -9 -24 -9 -35 0 -44 6 -6 11 -28 11
-49 0 -21 4 -46 9 -56 5 -9 15 -30 22 -47 8 -16 22 -37 31 -46 10 -9 18 -21
18 -28 0 -16 91 -102 101 -95 5 3 12 -1 15 -9 5 -14 39 -26 91 -33 12 -1 30
-7 40 -12 20 -10 45 -10 81 2 13 4 40 9 60 11 20 2 53 6 72 10 19 5 32 4 28 0
-16 -18 63 -168 79 -151 3 2 18 0 35 -5 17 -4 36 -5 42 -1 6 4 19 7 29 7 29 0
48 52 46 122 -1 35 -6 63 -11 63 -10 0 -8 57 1 75 3 6 7 28 8 50 1 35 14 88
31 135 3 8 7 26 8 39 2 13 8 29 14 35 5 5 10 18 10 28 0 9 12 43 27 75 15 32
28 63 28 68 0 6 4 13 8 16 5 3 9 13 11 21 1 9 8 23 15 32 7 9 10 16 6 16 -4 0
-1 10 7 23 18 29 16 65 -7 104 -38 64 -110 71 -173 17 -23 -19 -42 -42 -42
-50 0 -8 -3 -14 -7 -14 -9 0 -33 -49 -33 -67 0 -7 -9 -28 -20 -48 -11 -19 -19
-39 -18 -43 1 -4 -3 -17 -10 -29 -7 -13 -10 -23 -7 -23 3 0 -1 -13 -10 -30 -9
-16 -12 -30 -8 -30 4 0 2 -5 -5 -12 -7 -7 -12 -20 -12 -31 0 -10 -5 -28 -12
-40 -7 -12 -13 -26 -14 -32 0 -5 -2 -15 -2 -21 -3 -15 -37 -54 -49 -54 -5 0
-29 -10 -54 -22 -24 -12 -48 -22 -54 -23 -5 -1 -22 -5 -38 -9 -18 -5 -32 -4
-42 4 -8 7 -15 9 -15 5 0 -12 -53 27 -75 54 -28 36 -30 181 -4 237 11 20 19
45 19 54 0 9 4 20 8 26 4 5 14 27 21 49 7 22 21 59 32 82 10 24 19 52 19 63 0
11 5 20 10 20 6 0 10 11 10 25 0 14 5 25 10 25 6 0 10 24 10 53 0 43 -5 59
-27 85 -32 38 -87 49 -141 29z"/>
<path d="M14089 15185 c-3 -2 -18 -6 -34 -9 -27 -5 -41 -9 -100 -32 -11 -4
-24 -6 -28 -5 -4 0 -18 -4 -30 -11 -12 -7 -25 -11 -29 -10 -4 1 -20 -3 -35 -9
-15 -6 -39 -13 -53 -16 -14 -2 -26 -8 -28 -12 -1 -5 -14 -6 -27 -3 -14 2 -25
0 -25 -5 0 -5 -19 -15 -42 -22 -24 -7 -51 -17 -60 -22 -10 -5 -24 -9 -32 -9
-7 0 -26 -7 -42 -14 -15 -8 -31 -13 -36 -10 -4 3 -8 0 -8 -5 0 -6 -9 -11 -20
-11 -11 0 -20 -4 -20 -10 0 -5 -13 -10 -30 -10 -16 0 -30 -4 -30 -10 0 -5 -7
-10 -15 -10 -8 0 -23 -4 -33 -9 -9 -5 -32 -16 -49 -23 -18 -7 -33 -16 -33 -20
0 -4 -8 -6 -17 -6 -10 1 -40 -9 -68 -22 -61 -28 -173 -80 -198 -92 -11 -5 -21
-7 -24 -4 -3 3 -14 -4 -26 -15 -30 -27 -41 -24 -57 16 -8 19 -17 35 -22 35 -4
0 -8 4 -8 10 0 5 -11 33 -24 62 -13 29 -24 55 -24 58 -1 19 -68 136 -93 159
-26 25 -36 28 -86 27 -49 -2 -59 -6 -77 -29 -20 -28 -31 -107 -14 -107 4 0 8
-7 8 -15 0 -8 5 -24 10 -35 6 -11 15 -29 20 -40 6 -11 10 -27 10 -35 0 -8 5
-15 10 -15 6 0 10 -6 10 -12 0 -7 18 -48 40 -91 45 -88 51 -127 20 -127 -10 0
-24 -9 -30 -20 -6 -11 -20 -20 -30 -20 -11 0 -20 -4 -20 -10 0 -5 -9 -10 -20
-10 -11 0 -20 -4 -20 -9 0 -5 -9 -13 -20 -16 -11 -3 -26 -12 -32 -19 -7 -6
-41 -31 -75 -55 -35 -24 -63 -47 -63 -51 0 -4 -12 -13 -27 -21 -33 -17 -113
-94 -113 -108 0 -6 -4 -11 -10 -11 -5 0 -10 -9 -10 -19 0 -11 -4 -22 -10 -26
-9 -6 -4 -25 22 -85 13 -29 81 -67 112 -61 35 6 196 103 204 123 2 4 9 8 16 8
7 0 27 14 45 30 17 17 31 27 31 24 0 -4 20 10 45 30 25 21 45 34 45 29 0 -4 4
-3 8 3 11 15 55 44 68 44 13 0 58 -85 59 -110 0 -8 3 -20 7 -26 4 -6 10 -26
13 -44 3 -18 8 -37 11 -42 7 -10 15 -44 21 -86 3 -18 9 -35 14 -38 5 -3 9 -16
9 -30 0 -29 16 -58 50 -93 20 -21 34 -26 79 -27 46 -1 59 3 78 24 13 14 23 28
24 31 6 31 5 88 -1 96 -5 6 -9 24 -11 40 -2 17 -7 35 -12 42 -5 7 -10 22 -12
35 -4 32 -15 79 -24 103 -5 11 -18 52 -30 90 -12 39 -32 89 -43 113 -12 23
-19 44 -17 45 11 9 100 47 109 47 5 0 10 3 10 8 0 4 15 13 33 20 17 8 41 17
52 22 11 4 41 17 67 29 26 12 51 21 56 21 14 0 62 25 62 33 0 4 9 7 20 7 22 0
111 40 122 55 4 5 10 6 14 3 3 -4 19 -1 35 8 16 8 29 11 29 7 0 -5 5 0 11 10
6 9 14 15 19 12 5 -3 25 1 45 9 19 8 37 16 40 16 3 0 19 7 37 14 18 8 44 16
58 18 14 1 28 7 31 11 6 8 15 10 74 19 11 2 26 9 33 16 7 6 24 12 38 12 13 0
32 4 42 9 9 5 37 14 62 21 25 7 53 16 62 21 10 5 22 9 28 9 15 0 52 39 67 70
7 14 11 39 9 55 -2 17 -4 36 -5 42 -1 17 -57 66 -78 69 -9 2 -27 5 -38 8 -12
3 -24 4 -26 1z"/>
<path d="M9127 14704 c-3 -3 -57 -8 -119 -10 -115 -4 -203 -10 -203 -13 0 -1
-27 -4 -60 -7 -33 -2 -96 -11 -140 -20 -44 -8 -91 -18 -105 -20 -132 -26 -298
-72 -450 -126 -103 -37 -215 -84 -372 -156 -21 -9 -38 -20 -38 -24 0 -5 -9 -8
-19 -8 -11 0 -22 -4 -25 -9 -3 -5 -25 -19 -48 -31 -24 -12 -74 -41 -112 -64
-37 -22 -77 -46 -87 -52 -10 -6 -27 -18 -37 -27 -10 -10 -24 -17 -30 -17 -7 0
-12 -3 -12 -8 0 -4 -18 -18 -40 -32 -22 -14 -40 -28 -40 -32 0 -5 -5 -8 -11
-8 -6 0 -16 -6 -24 -12 -7 -7 -25 -22 -41 -33 -15 -11 -32 -25 -38 -30 -6 -6
-27 -23 -46 -38 -90 -73 -141 -120 -245 -227 -152 -155 -175 -179 -175 -188 0
-4 -8 -15 -17 -23 -10 -9 -36 -40 -58 -68 -22 -29 -49 -63 -60 -75 -11 -13
-27 -33 -35 -46 -8 -12 -28 -41 -45 -64 -36 -50 -53 -76 -62 -96 -4 -8 -11
-19 -15 -25 -17 -20 -58 -86 -58 -92 0 -4 -6 -14 -14 -22 -29 -33 -232 -435
-251 -498 -3 -13 -11 -23 -16 -23 -6 0 -7 -5 -4 -10 4 -6 2 -17 -5 -24 -6 -8
-13 -22 -15 -32 -2 -11 -16 -48 -30 -84 -59 -144 -150 -448 -179 -600 -3 -14
-7 -36 -10 -50 -3 -13 -8 -40 -11 -60 -3 -20 -8 -47 -10 -60 -3 -14 -8 -45
-11 -70 -3 -25 -7 -61 -9 -80 -21 -157 -21 -457 -1 -645 12 -121 15 -142 31
-215 5 -24 8 -37 20 -105 8 -43 26 -117 32 -135 4 -8 7 -21 9 -28 7 -35 47
-161 60 -189 8 -17 14 -36 14 -42 0 -6 18 -49 39 -96 22 -46 42 -93 46 -104 5
-17 82 -152 144 -253 13 -21 27 -38 32 -38 5 0 8 -4 6 -8 -2 -7 26 -48 58 -85
6 -7 34 -41 64 -77 30 -36 77 -87 104 -113 27 -26 48 -49 46 -51 -2 -1 -24
-17 -49 -33 -90 -61 -225 -222 -300 -358 -18 -33 -36 -62 -40 -65 -15 -12
-172 -343 -204 -430 -19 -52 -42 -112 -50 -132 -9 -21 -14 -38 -11 -38 3 0 -1
-13 -10 -30 -9 -16 -13 -30 -9 -30 4 0 2 -6 -4 -12 -9 -12 -26 -73 -22 -80 1
-2 -4 -16 -10 -33 -7 -16 -14 -39 -16 -50 -2 -11 -6 -31 -10 -45 -3 -14 -6
-31 -6 -37 -1 -7 -5 -13 -9 -13 -4 0 -7 -8 -7 -17 1 -19 -18 -118 -22 -118 -2
0 -12 -65 -13 -82 0 -7 -3 -13 -7 -13 -4 0 -6 -12 -5 -27 0 -15 -4 -63 -11
-108 -6 -44 -10 -83 -7 -87 2 -5 1 -13 -3 -20 -22 -35 -32 -651 -11 -685 3 -5
6 -29 7 -53 1 -64 6 -116 12 -126 2 -5 6 -27 7 -49 4 -52 8 -90 11 -90 1 0 3
-11 5 -25 6 -48 20 -124 30 -160 3 -14 8 -36 10 -50 6 -42 13 -68 24 -88 6
-11 8 -22 4 -25 -3 -4 0 -13 7 -22 7 -8 10 -15 7 -15 -6 0 16 -86 30 -120 7
-18 5 -10 28 -85 10 -33 23 -73 30 -90 7 -16 21 -50 30 -75 17 -45 22 -56 68
-160 44 -98 86 -183 127 -255 22 -38 43 -77 46 -85 4 -8 20 -34 36 -57 15 -23
28 -45 28 -48 0 -9 83 -129 93 -133 4 -2 7 -9 7 -16 0 -7 11 -23 25 -36 14
-13 25 -29 25 -37 0 -7 4 -13 8 -13 4 0 15 -12 25 -27 9 -16 30 -44 47 -63 17
-19 50 -57 73 -83 75 -87 214 -221 283 -274 16 -12 47 -36 69 -54 51 -40 183
-127 260 -171 68 -39 230 -119 248 -122 7 -1 28 -11 47 -21 19 -11 45 -20 58
-22 13 -1 29 -6 35 -11 12 -10 201 -71 231 -76 9 -1 19 -5 22 -9 4 -4 20 -7
35 -7 15 0 31 -5 34 -10 4 -6 10 -8 14 -6 4 3 23 1 43 -3 33 -8 40 -5 65 21
27 28 28 34 27 116 -1 48 -3 102 -6 119 -8 53 10 151 39 217 65 147 189 271
353 352 41 20 79 37 85 38 5 1 15 5 21 8 6 4 21 9 35 12 13 2 31 7 39 10 15 5
42 11 115 23 22 4 73 7 113 7 78 0 92 -8 92 -51 0 -28 -11 -34 -68 -39 -195
-15 -439 -128 -547 -252 -16 -19 -40 -46 -53 -60 -32 -36 -83 -144 -97 -204
-30 -137 55 -265 240 -360 106 -54 181 -70 470 -98 382 -37 524 -40 1960 -40
1203 0 1417 -2 1460 -14 174 -51 225 -64 225 -59 0 3 7 0 15 -7 8 -6 19 -9 25
-5 5 3 10 2 10 -3 0 -9 79 -27 108 -25 6 0 12 -3 12 -7 0 -5 11 -7 25 -5 14 1
25 -2 25 -7 0 -6 7 -8 15 -5 8 4 17 2 20 -3 3 -5 13 -9 23 -9 15 0 44 -4 102
-16 8 -2 15 -4 15 -5 0 -1 14 -3 30 -5 17 -1 30 -3 30 -5 0 -1 9 -3 20 -5 11
-2 33 -6 50 -10 27 -6 52 -9 125 -19 14 -1 27 -4 30 -5 3 -1 25 -4 50 -6 78
-8 115 -12 115 -15 0 -10 497 -15 570 -5 71 9 100 14 125 20 14 4 35 8 47 9
12 1 25 5 29 9 4 4 14 7 22 7 29 0 167 62 221 100 54 38 119 118 126 156 2 11
4 19 5 19 6 0 13 48 14 95 4 131 -88 320 -236 485 -25 28 -43 56 -40 65 3 8
28 48 56 90 28 41 59 90 69 109 10 19 30 52 45 75 41 64 229 423 229 439 1 4
13 36 29 70 16 34 29 64 29 67 1 7 64 171 75 195 23 50 99 298 94 306 -3 5 -1
9 4 9 7 0 31 81 33 112 0 4 5 22 10 40 22 70 39 150 34 158 -3 5 -1 11 4 15 5
3 10 13 9 23 0 9 3 31 7 47 4 17 8 39 9 50 2 11 6 27 10 36 4 9 6 20 5 25 -1
5 0 11 1 14 1 3 4 23 7 45 8 80 10 100 13 100 1 0 4 18 5 40 2 22 6 65 10 95
3 30 7 78 9 105 2 28 5 50 6 50 3 0 9 211 11 335 1 97 -15 429 -21 440 -2 3
-4 21 -5 40 -8 94 -30 299 -40 365 -2 17 -6 46 -9 65 -3 19 -8 51 -11 70 -3
19 -8 53 -11 75 -2 22 -9 63 -14 90 -6 28 -12 67 -16 89 -3 21 -8 48 -10 60
-3 11 -7 32 -9 46 -17 93 -29 146 -36 156 -5 6 -6 13 -4 16 7 6 -51 255 -107
463 -22 83 -41 155 -43 160 -1 6 -4 17 -7 25 -11 33 -43 135 -43 140 -1 3 -9
32 -20 65 -10 33 -19 63 -21 68 -1 4 -3 10 -4 15 -1 4 -2 10 -1 15 0 4 -4 7
-10 7 -6 0 -9 6 -6 13 2 6 -6 36 -19 65 -13 28 -21 52 -18 52 3 0 -1 10 -8 23
-6 12 -13 27 -14 32 -1 6 -8 24 -15 40 -6 17 -13 35 -14 40 -13 56 -221 483
-319 655 -14 25 -36 65 -48 90 -13 25 -27 50 -31 55 -12 14 -197 336 -197 341
0 3 -16 28 -35 57 -19 28 -35 55 -35 59 0 10 -74 133 -82 136 -5 2 -6 8 -2 13
3 5 0 9 -6 9 -6 0 -9 4 -5 9 3 5 -1 16 -9 23 -7 8 -29 43 -48 78 -20 36 -58
104 -85 151 -27 48 -53 93 -57 100 -4 8 -18 32 -31 54 -13 22 -33 56 -43 75
-10 19 -40 70 -65 113 -26 43 -50 90 -53 103 -3 13 -10 24 -15 24 -5 0 -20 21
-34 48 -61 113 -98 177 -106 180 -5 2 -9 10 -9 18 0 8 -4 14 -8 14 -4 0 -13
12 -20 28 -14 34 -63 115 -72 122 -4 3 -20 29 -36 57 -16 29 -32 53 -36 53 -5
0 -8 5 -8 11 0 6 -44 76 -97 155 -54 80 -102 153 -108 162 -5 9 -12 19 -15 22
-16 15 -80 109 -80 118 0 6 -4 12 -9 14 -5 2 -46 53 -91 113 -131 177 -137
184 -240 305 -227 265 -548 548 -805 710 -75 47 -284 167 -325 187 -14 6 -79
38 -145 69 -66 32 -124 59 -130 60 -5 1 -38 15 -72 32 -35 17 -63 28 -63 25 0
-2 -16 5 -35 17 -19 12 -35 19 -35 16 0 -3 -24 6 -52 18 -29 13 -56 24 -60 25
-16 3 -45 14 -93 33 -116 48 -373 122 -457 133 -15 2 -31 6 -36 9 -15 9 -197
38 -262 41 -36 2 -65 4 -65 6 0 3 -71 8 -220 14 -77 3 -163 8 -191 10 -28 3
-54 2 -57 -1z"/>
</g>
</svg>
